# xmcd CD database file
#
# Track frame offsets:
#	150
#	16517
#	36355
#	55175
#	72612
#	81815
#	101087
#	117152
#	134795
#	157725
#
# Disc length: 2193 seconds
#
# Revision: 0
# Processed by: cddbd v1.5.1PL2 Copyright (c) Steve Scherf et al.
# Submitted via: CDex 1.51
#
DISCID=81088f0a
DTITLE=佐藤博 - SAILING BLASTER
DYEAR=1986
DGENRE=JPop
TTITLE0=SWEET INSPIRATION
TTITLE1=EIGHT DAYS A WEEK
TTITLE2=ALWAYS
TTITLE3=LOVE IS HAPPENING
TTITLE4=BLUES BLASTER
TTITLE5=JENNY LOu
TTITLE6=SHINE FOREVER
TTITLE7=I FEEL FINE
TTITLE8=HOW YA BEEN (DO NAI?)
TTITLE9=SAILING BLASTER
EXTD=YEAR: 1986
EXTT0=
EXTT1=
EXTT2=
EXTT3=
EXTT4=
EXTT5=
EXTT6=
EXTT7=
EXTT8=
EXTT9=
PLAYORDER=
